<?xml version="1.0" standalone="no"?>
<!DOCTYPE svg PUBLIC "-//W3C//DTD SVG 20010904//EN"
 "http://www.w3.org/TR/2001/REC-SVG-20010904/DTD/svg10.dtd">
<svg version="1.0" xmlns="http://www.w3.org/2000/svg"
 width="54.000000pt" height="55.000000pt" viewBox="0 0 54.000000 55.000000"
 preserveAspectRatio="xMidYMid meet">
<metadata>
Created by potrace 1.16, written by Peter Selinger 2001-2019
</metadata>
<g transform="translate(0.000000,55.000000) scale(0.100000,-0.100000)"
fill="#000000" stroke="none">
<path d="M114 531 c-45 -27 -71 -98 -56 -149 18 -60 62 -95 124 -99 64 -5 106
18 131 70 47 97 -16 197 -123 197 -27 0 -58 -8 -76 -19z m116 -36 c85 -44 57
-165 -38 -165 -95 0 -125 128 -38 166 40 17 41 17 76 -1z"/>
<path d="M360 481 c0 -12 11 -21 32 -27 19 -6 39 -21 48 -37 13 -24 13 -30 0
-54 -9 -16 -29 -32 -48 -38 -20 -5 -32 -16 -32 -26 0 -50 94 -17 124 44 25 52
10 109 -37 137 -42 26 -87 27 -87 1z"/>
<path d="M145 260 c-87 -14 -145 -66 -145 -130 0 -78 77 -129 195 -130 117 0
200 57 198 136 -2 83 -125 145 -248 124z m142 -62 c14 -7 35 -25 46 -40 19
-25 19 -28 3 -52 -49 -76 -199 -85 -268 -16 -34 34 -34 41 -6 75 45 52 154 68
225 33z"/>
</g>
</svg>
