<?xml version="1.0" standalone="no"?>
<!DOCTYPE svg PUBLIC "-//W3C//DTD SVG 20010904//EN"
 "http://www.w3.org/TR/2001/REC-SVG-20010904/DTD/svg10.dtd">
<svg version="1.0" xmlns="http://www.w3.org/2000/svg"
 width="54.000000pt" height="55.000000pt" viewBox="0 0 54.000000 55.000000"
 preserveAspectRatio="xMidYMid meet">

<g transform="translate(0.000000,55.000000) scale(0.100000,-0.100000)"
fill="#000000" stroke="none">
<path d="M131 533 c-88 -44 -96 -166 -13 -227 34 -26 107 -26 145 -1 83 54 72
193 -18 231 -44 18 -72 17 -114 -3z m115 -38 c55 -38 51 -130 -6 -160 -42 -22
-74 -18 -109 11 -65 55 -26 164 58 164 20 0 46 -7 57 -15z"/>
<path d="M367 487 c-7 -19 1 -27 25 -27 29 0 58 -36 58 -73 0 -38 -22 -63 -60
-69 -34 -4 -32 -32 3 -36 38 -5 97 54 97 96 0 64 -30 102 -91 117 -18 5 -28 2
-32 -8z"/>
<path d="M105 246 c-53 -20 -105 -77 -105 -115 0 -34 38 -85 80 -106 84 -43
223 -23 279 40 51 58 36 122 -39 164 -54 30 -157 38 -215 17z m172 -37 c130
-49 74 -169 -78 -169 -52 0 -111 20 -141 47 -38 34 -12 96 52 122 34 13 132
14 167 0z"/>
<path d="M420 224 c0 -11 14 -25 33 -34 20 -9 33 -24 35 -38 4 -25 -23 -62
-43 -62 -7 0 -18 -7 -25 -15 -18 -22 12 -31 51 -15 63 27 78 90 32 139 -35 38
-83 52 -83 25z"/>
</g>
</svg>
