<?xml version="1.0" standalone="no"?>
<!DOCTYPE svg PUBLIC "-//W3C//DTD SVG 20010904//EN"
 "http://www.w3.org/TR/2001/REC-SVG-20010904/DTD/svg10.dtd">
<svg version="1.0" xmlns="http://www.w3.org/2000/svg"
 width="55.000000pt" height="55.000000pt" viewBox="0 0 55.000000 55.000000"
 preserveAspectRatio="xMidYMid meet">

<g transform="translate(0.000000,55.000000) scale(0.100000,-0.100000)"
fill="#000000" stroke="none">
<path d="M76 536 c-69 -26 -74 -44 -75 -274 l-1 -182 34 -38 34 -37 207 0 207
0 34 37 34 38 0 183 c0 286 4 281 -255 284 -138 2 -189 0 -219 -11z m405 -45
c23 -18 24 -27 28 -145 l3 -125 -218 -3 c-121 -2 -227 -7 -238 -12 -17 -9 -18
-2 -15 128 5 186 -7 176 234 176 165 0 185 -2 206 -19z m27 -363 c-9 -85 -16
-88 -233 -88 -159 0 -185 2 -204 18 -32 26 -38 75 -12 101 20 20 31 21 237 21
l217 0 -5 -52z"/>
<path d="M142 403 c3 -16 18 -18 127 -21 119 -3 160 6 145 29 -3 5 -66 9 -140
9 -124 0 -135 -2 -132 -17z"/>
<path d="M140 316 c0 -20 23 -26 100 -26 44 0 71 5 79 13 18 22 2 27 -91 27
-69 0 -88 -3 -88 -14z"/>
</g>
</svg>
