<?xml version="1.0" standalone="no"?>
<!DOCTYPE svg PUBLIC "-//W3C//DTD SVG 20010904//EN"
 "http://www.w3.org/TR/2001/REC-SVG-20010904/DTD/svg10.dtd">
<svg version="1.0" xmlns="http://www.w3.org/2000/svg"
 width="55.000000pt" height="55.000000pt" viewBox="0 0 55.000000 55.000000"
 preserveAspectRatio="xMidYMid meet">

<g transform="translate(0.000000,55.000000) scale(0.100000,-0.100000)"
fill="#000000" stroke="none">
<path d="M154 537 c-9 -25 0 -62 16 -62 10 0 15 10 15 34 0 36 -21 54 -31 28z"/>
<path d="M304 537 c-9 -25 0 -62 16 -62 10 0 15 10 15 34 0 36 -21 54 -31 28z"/>
<path d="M78 509 c-16 -9 -18 -31 -18 -224 0 -202 1 -215 19 -225 11 -5 87
-10 174 -10 136 0 156 2 170 18 15 16 17 47 17 219 0 181 -2 201 -18 216 -20
18 -62 23 -62 8 0 -5 11 -12 25 -15 l25 -6 0 -205 0 -205 -162 2 -163 3 -3
194 c-3 201 1 221 39 221 11 0 19 5 19 10 0 13 -40 12 -62 -1z"/>
<path d="M210 510 c0 -5 18 -10 40 -10 22 0 40 5 40 10 0 6 -18 10 -40 10 -22
0 -40 -4 -40 -10z"/>
<path d="M4 447 c-3 -8 -4 -101 -2 -206 4 -250 -10 -235 209 -239 130 -3 160
-1 157 10 -4 10 -41 14 -153 16 -121 2 -152 6 -167 19 -16 14 -18 36 -18 209
0 119 -4 195 -10 199 -6 3 -13 0 -16 -8z"/>
<path d="M477 434 c-4 -4 -7 -20 -7 -36 0 -26 3 -28 41 -28 39 0 40 1 37 33
-3 28 -7 32 -33 35 -17 2 -34 0 -38 -4z m43 -30 c0 -17 -22 -14 -28 4 -2 7 3
12 12 12 9 0 16 -7 16 -16z"/>
<path d="M140 380 c0 -6 44 -10 111 -10 71 0 108 4 104 10 -3 6 -52 10 -111
10 -63 0 -104 -4 -104 -10z"/>
<path d="M470 235 c0 -90 4 -121 16 -141 l17 -25 23 22 c23 21 24 29 24 141
l0 118 -40 0 -40 0 0 -115z m50 -9 c0 -97 -10 -137 -24 -100 -8 21 -8 189 1
197 18 19 23 -2 23 -97z"/>
<path d="M140 310 c0 -6 41 -10 104 -10 59 0 108 4 111 10 4 6 -33 10 -104 10
-67 0 -111 -4 -111 -10z"/>
<path d="M142 248 c3 -9 32 -13 106 -13 140 0 139 19 -1 23 -85 2 -108 0 -105
-10z"/>
<path d="M140 180 c0 -6 28 -10 65 -10 37 0 65 4 65 10 0 6 -28 10 -65 10 -37
0 -65 -4 -65 -10z"/>
</g>
</svg>
