<?xml version="1.0" standalone="no"?>
<!DOCTYPE svg PUBLIC "-//W3C//DTD SVG 20010904//EN"
 "http://www.w3.org/TR/2001/REC-SVG-20010904/DTD/svg10.dtd">
<svg version="1.0" xmlns="http://www.w3.org/2000/svg"
 width="55.000000pt" height="55.000000pt" viewBox="0 0 55.000000 55.000000"
 preserveAspectRatio="xMidYMid meet">

<g transform="translate(0.000000,55.000000) scale(0.100000,-0.100000)"
fill="#000000" stroke="none">
<path d="M105 535 c-87 -31 -108 -89 -103 -284 3 -154 16 -189 78 -226 31 -18
52 -20 195 -20 143 0 164 2 195 20 59 35 74 74 79 203 3 107 2 114 -15 110
-17 -3 -20 -16 -24 -113 -3 -63 -11 -120 -18 -133 -23 -41 -69 -52 -217 -52
-223 0 -235 12 -235 235 0 148 11 194 52 217 13 7 70 15 133 18 94 4 110 7
113 23 3 15 -6 17 -95 17 -58 -1 -114 -7 -138 -15z"/>
<path d="M414 540 c-59 -24 -72 -104 -25 -151 74 -73 191 6 151 102 -20 48
-76 69 -126 49z m80 -46 c35 -35 12 -94 -37 -94 -42 0 -57 15 -57 57 0 49 59
72 94 37z"/>
<path d="M135 260 c-13 -22 9 -30 81 -30 66 0 75 2 72 18 -3 14 -16 18 -75 20
-42 2 -74 -1 -78 -8z"/>
<path d="M137 163 c-4 -3 -7 -12 -7 -20 0 -10 28 -13 128 -13 71 0 132 3 135
7 4 3 2 12 -4 20 -8 9 -43 13 -129 13 -64 0 -120 -3 -123 -7z"/>
</g>
</svg>
