<?xml version="1.0" standalone="no"?>
<!DOCTYPE svg PUBLIC "-//W3C//DTD SVG 20010904//EN"
 "http://www.w3.org/TR/2001/REC-SVG-20010904/DTD/svg10.dtd">
<svg version="1.0" xmlns="http://www.w3.org/2000/svg"
 width="55.000000pt" height="55.000000pt" viewBox="0 0 55.000000 55.000000"
 preserveAspectRatio="xMidYMid meet">

<g transform="translate(0.000000,55.000000) scale(0.100000,-0.100000)"
fill="#000000" stroke="none">
<path d="M137 524 c-46 -31 -57 -57 -45 -101 11 -39 4 -53 -23 -53 -11 0 -31
-11 -44 -25 -49 -49 -21 -165 40 -165 31 0 38 -13 27 -53 -12 -45 0 -71 47
-103 47 -31 82 -27 107 11 21 33 35 31 62 -5 28 -37 55 -38 105 -4 46 31 57
57 45 101 -11 39 -4 53 23 53 11 0 31 11 44 25 49 49 21 165 -40 165 -31 0
-38 13 -27 53 12 45 0 71 -47 103 -47 31 -82 27 -107 -11 -21 -33 -35 -31 -62
5 -28 37 -55 38 -105 4z m91 -44 c29 -39 57 -38 94 2 l30 32 37 -21 c37 -22
38 -26 25 -90 -7 -36 17 -64 64 -73 24 -5 27 -10 30 -53 3 -49 3 -50 -51 -61
-37 -9 -53 -44 -39 -86 14 -40 8 -53 -34 -76 l-35 -19 -25 33 c-32 41 -58 41
-96 0 l-30 -32 -37 21 c-37 22 -40 30 -26 90 6 25 3 35 -14 50 -12 10 -34 20
-49 23 -25 5 -27 9 -27 54 0 47 2 50 31 58 17 4 39 17 49 28 16 17 17 25 7 59
-16 51 -17 49 21 71 42 26 49 25 75 -10z"/>
<path d="M253 372 c-12 -2 -34 -17 -48 -33 -34 -42 -33 -89 3 -130 83 -93 217
34 137 129 -25 30 -52 40 -92 34z m55 -48 c33 -23 27 -83 -9 -103 -24 -13 -29
-13 -53 2 -34 23 -37 78 -4 101 28 20 38 20 66 0z"/>
</g>
</svg>
