<?xml version="1.0" standalone="no"?>
<!DOCTYPE svg PUBLIC "-//W3C//DTD SVG 20010904//EN"
 "http://www.w3.org/TR/2001/REC-SVG-20010904/DTD/svg10.dtd">
<svg version="1.0" xmlns="http://www.w3.org/2000/svg"
 width="55.000000pt" height="55.000000pt" viewBox="0 0 55.000000 55.000000"
 preserveAspectRatio="xMidYMid meet">

<g transform="translate(0.000000,55.000000) scale(0.100000,-0.100000)"
fill="#000000" stroke="none">
<path d="M55 490 c-46 -47 -57 -62 -47 -72 9 -9 15 -9 24 0 9 9 19 5 45 -20
l33 -32 -32 -33 c-24 -25 -29 -36 -20 -45 9 -9 16 -7 32 7 20 18 22 17 144
-103 104 -103 128 -122 154 -122 40 0 80 -17 115 -49 21 -19 30 -22 39 -13 9
9 6 18 -13 39 -32 35 -49 75 -49 115 0 26 -19 50 -122 154 -120 122 -121 124
-103 144 14 16 16 23 7 32 -9 9 -20 4 -45 -20 l-33 -32 -32 33 c-24 24 -29 36
-21 44 11 11 5 33 -9 33 -4 0 -34 -27 -67 -60z m80 -40 c27 -29 28 -31 12 -47
-16 -16 -19 -16 -49 14 -27 27 -29 34 -18 47 17 22 22 20 55 -14z m108 -142
l-43 -42 -35 34 -35 34 42 43 42 43 36 -35 35 -35 -42 -42z m139 -55 c38 -38
68 -76 68 -87 0 -24 -38 -66 -60 -66 -9 0 -24 6 -34 13 -16 12 -16 14 -2 26 9
8 16 20 16 27 0 19 -24 18 -40 -1 -10 -12 -16 -13 -27 -4 -11 10 -11 15 3 30
9 11 14 25 10 35 -6 15 -9 15 -30 -5 l-23 -21 -18 20 c-18 20 -18 21 20 60 22
22 41 40 44 40 3 0 36 -30 73 -67z"/>
</g>
</svg>
